# xmcd
#
# Track frame offsets: 
#        165
#        17419
#        32261
#        45889
#        65452
#        82444
#        96598
#        112921
#        128798
#        142725
#        158336
#        174168
#
# Disc length: 2506 seconds
#
# Revision: 2
# Processed by: cddbd v1.5.2PL0 Copyright (c) Steve Scherf et al.
# Submitted via: ExactAudioCopy v0.99pb3
#
DISCID=8409c80c
DTITLE=Felipe e Falcao - Vol 07
DYEAR=1996
DGENRE=Sertanejo
TTITLE0=Milagre da Santa
TTITLE1=Louco de Paixao
TTITLE2=O Papa Tudo
TTITLE3=Amante e Inimigos
TTITLE4=Vem Comigo
TTITLE5=o Fim da Picada
TTITLE6=Duas Feras no Cio
TTITLE7=Derrando Paixao
TTITLE8=Fogo na Capoeira
TTITLE9=Grito de Amor
TTITLE10=Floresta do Meu Coracao
TTITLE11=Triste Separacao
EXTD=felipe and falcão vol-07
EXTT0=
EXTT1=
EXTT2=
EXTT3=
EXTT4=
EXTT5=
EXTT6=
EXTT7=
EXTT8=
EXTT9=
EXTT10=
EXTT11=
PLAYORDER=
